<svg xmlns="http://www.w3.org/2000/svg" width="1440" height="796" style="cursor: move;">
<style>
        path {
            fill: black;
        }
        @media (prefers-color-scheme: dark) {
            path { fill: white; }
        }
</style><g transform="translate(-676,-299) scale(2)"><path class="link" marker-end="" d="M740,319.5, 920,359.5" style="stroke-width: 0.5; stroke-opacity: 1; stroke: rgb(80, 80, 80);"></path><path class="link" marker-end="" d="M560,302, 740,359.5" style="stroke-width: 0.5; stroke-opacity: 1; stroke: rgb(80, 80, 80);"></path><path class="link" marker-end="" d="M560,417, 740,359.5" style="stroke-width: 0.5; stroke-opacity: 1; stroke: rgb(80, 80, 80);"></path><path class="link" marker-end="" d="M740,359.5, 920,359.5" style="stroke-width: 0.5; stroke-opacity: 1; stroke: rgb(80, 80, 80);"></path><path class="link" marker-end="" d="M560,302, 740,399.5" style="stroke-width: 0.5; stroke-opacity: 1; stroke: rgb(80, 80, 80);"></path><path class="link" marker-end="" d="M560,417, 740,399.5" style="stroke-width: 0.5; stroke-opacity: 1; stroke: rgb(80, 80, 80);"></path><path class="link" marker-end="" d="M740,399.5, 920,359.5" style="stroke-width: 0.5; stroke-opacity: 1; stroke: rgb(80, 80, 80);"></path><path class="link" marker-end="" d="M560,302, 740,319.5" style="stroke-width: 0.5; stroke-opacity: 1; stroke: rgb(80, 80, 80);"></path><path class="link" marker-end="" d="M560,417, 740,319.5" style="stroke-width: 0.5; stroke-opacity: 1; stroke: rgb(80, 80, 80);"></path><circle r="10" class="node" id="0_0" cx="560" cy="302" style="fill: rgb(255, 255, 255); stroke: rgb(51, 51, 51);"></circle><circle r="10" class="node" id="0_1" cx="560" cy="417" style="fill: rgb(255, 255, 255); stroke: rgb(51, 51, 51);"></circle><circle r="10" class="node" id="1_0" cx="740" cy="319.5" style="fill: rgb(255, 255, 255); stroke: rgb(51, 51, 51);"></circle><text class="text" dy=".35em" x="525" y="457" style="font-size: 12px;">Input Layer ∈ ℝ²</text><text class="text" dy=".35em" x="705" y="457" style="font-size: 12px;">Hidden Layer ∈ ℝ³</text><circle r="10" class="node" id="1_1" cx="740" cy="359.5" style="fill: rgb(255, 255, 255); stroke: rgb(51, 51, 51);"></circle><circle r="10" class="node" id="1_2" cx="740" cy="399.5" style="fill: rgb(255, 255, 255); stroke: rgb(51, 51, 51);"></circle><circle r="10" class="node" id="2_0" cx="920" cy="359.5" style="fill: rgb(255, 255, 255); stroke: rgb(51, 51, 51);"></circle><text class="text" dy=".35em" x="885" y="457" style="font-size: 12px;">Output Layer ∈ ℝ¹</text></g><defs><marker id="arrow" viewBox="0 -5 10 10" markerWidth="7" markerHeight="7" orient="auto" refX="40"><path d="M0,-5L10,0L0,5" style="stroke: rgb(80, 80, 80); fill: none;"></path></marker></defs></svg>